<svg xmlns="http://www.w3.org/2000/svg" viewBox="0 0 128 128" width="128" height="128">
  <!-- Fond circulaire bleu Google -->
  <circle cx="64" cy="64" r="60" fill="#4285F4"/>
  <!-- Engrenage blanc stylisé -->
  <g transform="translate(64,64)" fill="#FFFFFF">
    <!-- Dents de l'engrenage -->
    <path d="M-6,-28 L6,-28 L8,-20 L-8,-20 Z" />
    <path d="M-6,28 L6,28 L8,20 L-8,20 Z" />
    <path d="M-28,-6 L-28,6 L-20,8 L-20,-8 Z" />
    <path d="M28,-6 L28,6 L20,8 L20,-8 Z" />
    <path d="M-22,-16 L-16,-22 L-11,-15 L-15,-11 Z" />
    <path d="M22,16 L16,22 L11,15 L15,11 Z" />
    <path d="M16,-22 L22,-16 L15,-11 L11,-15 Z" />
    <path d="M-16,22 L-22,16 L-15,11 L-11,15 Z" />
    <!-- Corps central de l'engrenage -->
    <circle cx="0" cy="0" r="18" fill="#FFFFFF"/>
    <circle cx="0" cy="0" r="8" fill="#4285F4"/>
  </g>
</svg>
